PathFileType	4	(X/Y/Z)	D:\Share\Shared_Data\Ergonomics\Sit To Stand Pertubation\S2\Unperturbed.trc
DataRate	CameraRate	NumFrames	NumMarkers	Units	OrigDataRate	OrigDataStartFrame	OrigNumFrames	
100	100	15	18	m	100	3401	241
Frame#	Time	R_Toe			R_ASIS			R_Pelvis			V_Sacral			L_Pelvis			L_ASIS			Clavical			R_Acromium			L_Acromium			Sternum			Torso			R_Thigh_Med			R_Thigh_Lat			R_Thigh			R_Shank_Med			R_Shank_Lat			R_Shank			R_Heel			
		X1	Y1	Z1	X2	Y2	Z2	X3	Y3	Z3	X4	Y4	Z4	X5	Y5	Z5	X6	Y6	Z6	X7	Y7	Z7	X8	Y8	Z8	X9	Y9	Z9	X10	Y10	Z10	X11	Y11	Z11	X12	Y12	Z12	X13	Y13	Z13	X14	Y14	Z14	X15	Y15	Z15	X16	Y16	Z16	X17	Y17	Z17	X18	Y18	Z18	

3401	34	0.44248578	0.064454361	0.14758437	0.36539624	1.0098005	0.15390219	0.29176312	1.027061	0.19138594	0.16174361	1.0487448	0.022580574	0.2736235	1.0424663	-0.15079276	0.36670511	1.0262849	-0.11706883	0.5007767	1.4060645	0.021151106	0.41753537	1.4533124	0.22553134	0.41186374	1.4684141	-0.16357829	0.50343835	1.2425338	0.018582644	0.49968033	1.3676786	-0.093418083	0.39801111	0.4934772	0.10957533	0.38068637	0.51634375	0.20329422	0.42614633	0.6952594	0.17864787	0.30718207	0.10830064	0.11070271	0.28587561	0.10107528	0.20206749	0.34111093	0.36952179	0.22712027	0.20488879	0.061763802	0.15204393
3402	34.01	0.44250415	0.064438072	0.14757529	0.36825861	1.0112696	0.15408856	0.29431781	1.0278483	0.19144431	0.16432031	1.0491692	0.02261124	0.27610367	1.0433064	-0.15078612	0.36944644	1.0278568	-0.11703375	0.49971582	1.4093098	0.02139175	0.41586426	1.4556428	0.22587018	0.40994339	1.4708536	-0.16333852	0.50373239	1.2457057	0.018580936	0.49883002	1.3709209	-0.093324326	0.39735349	0.49355228	0.10913524	0.38010818	0.51646716	0.20280045	0.42715121	0.69496851	0.17855838	0.307039	0.10822653	0.11065047	0.28587784	0.10112379	0.20200473	0.34062711	0.36973886	0.22675429	0.20487578	0.061859291	0.15208177
3403	34.02	0.44252328	0.064420456	0.14756177	0.37108017	1.0126516	0.15426901	0.29685529	1.0285623	0.19150331	0.16684837	1.0495319	0.022668007	0.27854572	1.0440731	-0.15072176	0.37209698	1.0293394	-0.11701058	0.49862836	1.4124138	0.021636906	0.41417508	1.457848	0.22621321	0.4080433	1.4731362	-0.16310114	0.5039808	1.248752	0.018593771	0.49795343	1.3740209	-0.093222198	0.3967424	0.49361871	0.10867909	0.37958795	0.5165802	0.20229617	0.42818607	0.6946875	0.17845287	0.30690549	0.10815213	0.11059209	0.28588623	0.10117231	0.20193816	0.3401828	0.36994427	0.22638188	0.204881	0.061945404	0.15212091
3404	34.03	0.44254263	0.064402306	0.14754553	0.37385522	1.0139467	0.15444255	0.29936975	1.0292064	0.19156342	0.16932819	1.049838	0.022749474	0.28094278	1.0447656	-0.15060321	0.37465131	1.0307354	-0.11699712	0.49751599	1.4153756	0.021888266	0.41247333	1.4599264	0.2265574	0.40615845	1.4752629	-0.16286198	0.50419943	1.2516732	0.018622486	0.49705579	1.3769799	-0.093110016	0.39617349	0.49367822	0.10821896	0.37911713	0.51668652	0.20178893	0.4292388	0.69441351	0.17833926	0.3067955	0.10808307	0.11053009	0.2858989	0.10121878	0.2018699	0.33976907	0.37013873	0.22600967	0.20490521	0.06201757	0.15215965
3405	34.04	0.44256177	0.0643843	0.14752838	0.37657895	1.0151552	0.1546075	0.30185526	1.0297831	0.19162512	0.17176009	1.050092	0.022852798	0.28328528	1.0453828	-0.15043799	0.3771055	1.0320483	-0.11699189	0.4963812	1.4181942	0.022147093	0.41076709	1.4618759	0.22689931	0.40427991	1.4772366	-0.16261571	0.50439859	1.2544702	0.018666941	0.49614175	1.3797983	-0.092987221	0.39564133	0.49373206	0.10776626	0.37868292	0.51678723	0.20128409	0.4302955	0.69414221	0.17822517	0.30673004	0.10802689	0.11046629	0.28591406	0.10126155	0.20180202	0.33937738	0.37032318	0.22564276	0.20494423	0.062073971	0.15219534
3406	34.05	0.44258017	0.064366814	0.14751196	0.37924829	1.0162799	0.15476201	0.30430539	1.0302963	0.19168951	0.17414432	1.050295	0.022973879	0.28556427	1.0459238	-0.15023863	0.37946173	1.0332809	-0.11699495	0.49522665	1.4208695	0.022413849	0.40906595	1.4636947	0.2272366	0.4024007	1.4790609	-0.16235762	0.50458084	1.2571436	0.018725529	0.49521448	1.3824786	-0.092854324	0.39513385	0.49378049	0.10732809	0.37826929	0.51688214	0.20078326	0.43134406	0.69386774	0.17811682	0.30673599	0.10799207	0.11040123	0.28593018	0.10129964	0.20173608	0.33899954	0.37049808	0.22528326	0.20498953	0.062115154	0.15222467
3407	34.06	0.44259723	0.064349854	0.14749738	0.381862	1.0173255	0.15490446	0.3067135	1.0307504	0.19175789	0.17648123	1.0504478	0.023108494	0.2877746	1.0463868	-0.15001817	0.38172949	1.0344336	-0.11700801	0.49405481	1.4234026	0.022687983	0.4073779	1.4653823	0.2275681	0.40051797	1.4807406	-0.1620853	0.50474142	1.2596943	0.018795643	0.49427551	1.385024	-0.092712685	0.39463547	0.49382333	0.1069061	0.37785938	0.51696936	0.20028401	0.43237695	0.69358289	0.17801825	0.30683783	0.10798571	0.11033459	0.2859462	0.10133255	0.20167293	0.33862738	0.37066342	0.22492982	0.20503273	0.062142811	0.15224561
3408	34.07	0.44261249	0.064333351	0.14748486	0.3844198	1.0182994	0.15503398	0.30907343	1.0311523	0.19183076	0.17877142	1.0505502	0.023252945	0.28991571	1.0467698	-0.14978853	0.3839216	1.0355067	-0.11703334	0.49286734	1.4257974	0.022967718	0.4057059	1.4669407	0.22789328	0.39863205	1.482282	-0.16179916	0.50487106	1.2621261	0.018874329	0.49332486	1.3874404	-0.092564209	0.3941319	0.49386145	0.10649775	0.37743692	0.51704663	0.19978099	0.43339188	0.69328021	0.17793112	0.30703946	0.10800919	0.11026631	0.28596109	0.10136018	0.20161249	0.33825162	0.37081934	0.22457828	0.20506886	0.062158894	0.15225847
3409	34.08	0.44262552	0.064317375	0.14747398	0.38692215	1.0192109	0.15515077	0.31138071	1.0315089	0.19190762	0.18101562	1.0506035	0.023403315	0.29199115	1.0470719	-0.14956078	0.38605069	1.0364996	-0.11707206	0.49166541	1.4280602	0.023249521	0.40404688	1.4683734	0.22821141	0.39674551	1.4836956	-0.16150247	0.50495959	1.264443	0.018958614	0.49236267	1.3897351	-0.092410988	0.3936106	0.49389563	0.10609851	0.37698743	0.51711163	0.19926749	0.43438931	0.6929541	0.1778557	0.30730991	0.10805381	0.11019732	0.28597379	0.10138284	0.20155383	0.33786139	0.37096713	0.22422339	0.20509616	0.062165379	0.15226477
3410	34.09	0.44263593	0.064302231	0.14746404	0.38937033	1.0200697	0.15525642	0.3136351	1.0318271	0.19198647	0.18321472	1.0506086	0.02355435	0.29400674	1.0472963	-0.1493445	0.38812732	1.037413	-0.11712334	0.49045001	1.4301995	0.023528315	0.40239349	1.4696862	0.22852184	0.39486334	1.4849972	-0.16120108	0.50499988	1.2666517	0.019045132	0.49138971	1.3919161	-0.092255592	0.393061	0.49392557	0.10570463	0.37649924	0.51716229	0.19873778	0.43536893	0.69260059	0.17779192	0.30759277	0.10810281	0.11012909	0.28598276	0.10140128	0.20149564	0.33744412	0.37110974	0.22386099	0.20511458	0.062164165	0.15226619
3411	34.1	0.44264346	0.064288292	0.14745457	0.39176599	1.0208849	0.15535368	0.31584259	1.0321129	0.1920638	0.18537019	1.0505671	0.023699625	0.29597006	1.0474506	-0.14914771	0.39016025	1.03825	-0.11718449	0.48922293	1.4322251	0.023798763	0.40073853	1.470885	0.22882347	0.39299295	1.4862081	-0.16090413	0.50499045	1.2687595	0.019129528	0.49040771	1.3939934	-0.092101257	0.39247748	0.49395001	0.10531594	0.37596378	0.51719769	0.19818951	0.43632825	0.6922182	0.17773933	0.30783774	0.10814058	0.11006252	0.28598645	0.10141647	0.20143666	0.33698749	0.37125067	0.22348967	0.20512486	0.062156845	0.15226407
3412	34.11	0.44264795	0.064275986	0.14744553	0.39411124	1.021663	0.15544612	0.31801529	1.0323707	0.19213481	0.1874845	1.0504821	0.023833038	0.29788968	1.0475474	-0.14897566	0.39215732	1.0390167	-0.11725151	0.48798633	1.4341472	0.024056461	0.39907727	1.4719768	0.22911432	0.39114215	1.4873502	-0.160623	0.50493741	1.2707738	0.019206675	0.48941901	1.3959749	-0.091951691	0.39186014	0.49396716	0.1049366	0.37537546	0.51721826	0.1976256	0.43726349	0.69180743	0.17769717	0.30801926	0.10815891	0.10999791	0.28598325	0.10142937	0.20137617	0.33648148	0.37139252	0.22311142	0.20512816	0.062144585	0.15225938
3413	34.12	0.44264935	0.064265556	0.14743694	0.39641	1.0224081	0.15553737	0.32016776	1.0326021	0.19219495	0.18956181	1.0503566	0.023950552	0.29977463	1.0476013	-0.14882956	0.39412515	1.0397225	-0.11732021	0.48674197	1.4359741	0.024298326	0.39740649	1.4729675	0.22939207	0.38931604	1.4884391	-0.16036792	0.50485373	1.2727024	0.019271648	0.48842639	1.3978689	-0.091810135	0.39121011	0.49397375	0.1045728	0.37473175	0.51722571	0.19705244	0.43816956	0.69137091	0.17766394	0.30813373	0.10815637	0.1099355	0.28597162	0.10144052	0.20131415	0.33591989	0.37153629	0.22273053	0.20512566	0.062128288	0.15225287
3414	34.13	0.44264758	0.064257088	0.14742896	0.3986687	1.0231222	0.15562975	0.32231158	1.0328073	0.19224246	0.19160751	1.0501951	0.024051275	0.30163263	1.0476266	-0.14870651	0.39606927	1.0403774	-0.11738719	0.48549081	1.4377114	0.024522421	0.39572391	1.4738622	0.22965471	0.38751593	1.4894816	-0.16014563	0.50475616	1.2745508	0.019320253	0.48743225	1.399681	-0.091679039	0.39052646	0.49396466	0.10423022	0.37403442	0.51722266	0.19647707	0.43903992	0.69091138	0.17763657	0.30818921	0.10813557	0.10987568	0.28595056	0.10144994	0.20125131	0.33530109	0.37168115	0.22235139	0.20511852	0.062108761	0.15224518
3415	34.14	0.44264264	0.064250542	0.147422	0.4008963	1.0238054	0.15572345	0.32445038	1.0329847	0.19228041	0.19362727	1.050001	0.024137445	0.30346924	1.0476326	-0.1486021	0.39799359	1.0409908	-0.11745033	0.48423325	1.4393628	0.024727322	0.39402826	1.474665	0.22990001	0.38574103	1.490478	-0.15995668	0.50466006	1.2763235	0.019348988	0.48643835	1.4014154	-0.091559998	0.38980923	0.49393622	0.10391218	0.37329099	0.51721381	0.19590501	0.43986694	0.69043091	0.17760927	0.30819873	0.10810104	0.10981902	0.28591998	0.10145724	0.20118898	0.33462875	0.37182559	0.22197745	0.20510773	0.062086861	0.15223677
